<svg width="22" height="22" viewBox="0 0 22 22" fill="none" xmlns="http://www.w3.org/2000/svg">
<path d="M20.75 20.7499C20.75 20.7499 20.7313 19.7749 20.75 18.583C20.7687 17.3911 20.4746 16.9832 18.5311 15.6848L13.1686 12.083C15.3518 11.0341 15.316 8.94593 15.3355 7.74993V5.583C15.3966 4.41509 15.0012 3.26918 14.2329 2.38743C13.3404 1.60881 12.1835 1.20174 11 1.24993C9.8171 1.20216 8.66082 1.6092 7.76869 2.38743C7.00012 3.27021 6.60527 4.41745 6.66775 5.58625V7.74993C6.68644 8.94593 6.65069 11.0349 8.83469 12.083L3.47219 15.6848C1.52869 16.9848 1.23375 17.3911 1.25244 18.583C1.27113 19.7749 1.25 20.7499 1.25 20.7499H20.75Z" stroke="#092A5E" stroke-width="1.25" stroke-linecap="round" stroke-linejoin="round"/>
</svg>
