<svg width="22" height="22" viewBox="0 0 22 22" fill="none" xmlns="http://www.w3.org/2000/svg">
<path d="M14.4668 14.467L20.9668 20.967M1.4668 9.05011C1.4668 7.55032 1.91154 6.08421 2.74477 4.83718C3.57801 3.59016 4.76232 2.61821 6.14795 2.04427C7.53357 1.47033 9.05827 1.32016 10.5292 1.61275C12.0002 1.90535 13.3514 2.62756 14.4119 3.68807C15.4724 4.74858 16.1946 6.09976 16.4872 7.57073C16.7798 9.0417 16.6296 10.5664 16.0557 11.952C15.4818 13.3376 14.5098 14.522 13.2628 15.3552C12.0158 16.1884 10.5496 16.6332 9.04986 16.6332C7.03871 16.6332 5.10992 15.8342 3.68782 14.4121C2.26572 12.99 1.4668 11.0613 1.4668 9.05011V9.05011Z" stroke="#9B9B9B" stroke-width="1.25" stroke-linecap="round" stroke-linejoin="round"/>
</svg>
