<svg xmlns="http://www.w3.org/2000/svg" width="292.266" height="128" viewBox="0 0 292.266 128"><defs><style>.a{fill:#d40e14;}</style></defs><path class="a" d="M351.43,132a2.189,2.189,0,0,0,.624-.8,3.49,3.49,0,0,0,.2-1.332V86.319a3.642,3.642,0,0,0-.2-1.354,1.9,1.9,0,0,0-.624-.752q-.993-.752-4.589-.752t-4.664.752a1.888,1.888,0,0,0-.624.752,3.619,3.619,0,0,0-.2,1.354v43.557a2.61,2.61,0,0,0,.82,2.136q.993.752,4.664.752T351.43,132Zm-32.491.248a16.6,16.6,0,0,0,6.139-3.558,13.737,13.737,0,0,0,3.521-5.394,19.868,19.868,0,0,0,1.121-6.771v-30.2a2.55,2.55,0,0,0-.752-2.136q-1.068-.752-4.589-.752-3.664,0-4.664.752a1.685,1.685,0,0,0-.639.752,3.95,3.95,0,0,0-.18,1.354V116.38a11.5,11.5,0,0,1-.624,3.649,5.725,5.725,0,0,1-2.723,3.1,10.938,10.938,0,0,1-5.552,1.226,12.841,12.841,0,0,1-4.077-.572,7.086,7.086,0,0,1-2.761-1.617,6.319,6.319,0,0,1-1.565-2.528,10.126,10.126,0,0,1-.5-3.257V86.289a2.55,2.55,0,0,0-.752-2.136q-1.068-.752-4.589-.752-3.664,0-4.664.752a1.685,1.685,0,0,0-.639.752,3.95,3.95,0,0,0-.181,1.354V116.47a19.883,19.883,0,0,0,1.121,6.771,13.736,13.736,0,0,0,3.521,5.394,16.6,16.6,0,0,0,6.139,3.558,32.032,32.032,0,0,0,17.889.068Zm-53.2-.248a2.016,2.016,0,0,0,.6-.8,3.761,3.761,0,0,0,.181-1.332V92.721h10.855a6.771,6.771,0,0,0,1.956-.233,1.994,1.994,0,0,0,1.174-1.016,8.938,8.938,0,0,0,.752-2.671,18.632,18.632,0,0,0,.263-2.738,4.514,4.514,0,0,0-.143-1.3,1.369,1.369,0,0,0-.572-.752,2.257,2.257,0,0,0-.752-.263,8.649,8.649,0,0,0-1.422-.09H244.779a6.771,6.771,0,0,0-1.956.233,2,2,0,0,0-1.159,1.038,7.681,7.681,0,0,0-.752,2.347,16.821,16.821,0,0,0-.263,3.009,4.658,4.658,0,0,0,.143,1.332,1.324,1.324,0,0,0,.6.752,4.514,4.514,0,0,0,2.174.354h12.1v37.155a2.49,2.49,0,0,0,.82,2.136q.993.752,4.664.752Q264.632,132.795,265.738,132Z" transform="translate(-59.988 -21.359)"/><path class="a" d="M8.1,48.32H46.134c3.761,0,6.537,1.181,7.643,6.477,1.234,5.89.752,9.99-5.905,10.457l-11.939.88c8.787,55.534,60.183,73.634,88.145,13.819,4.634-9.9,6.146-11.7,11.217-10.442,6.876,1.708,7.816,5.266,4.514,15.219-24.156,73.709-105.455,81.1-121.4-17.363l-9.7.7C.808,68.632.5,61.974.5,58.273.5,50.945,3.216,48.32,8.1,48.32Z" transform="translate(-0.5 -12.669)"/><circle class="a" cx="14.113" cy="14.113" r="14.113" transform="translate(131.77)"/></svg>